<svg xmlns="http://www.w3.org/2000/svg" xmlns:xlink="http://www.w3.org/1999/xlink" width="500" viewBox="0 0 375 374.999991" height="500" preserveAspectRatio="xMidYMid meet"><defs><clipPath id="021a76f8a5"><path d="M 15.546875 0 L 359.796875 0 L 359.796875 375 L 15.546875 375 Z M 15.546875 0 " clip-rule="nonzero"></path></clipPath></defs><path fill="#ffffff" d="M 147.304688 4.433594 C 145.777344 4.425781 139.410156 7.78125 136.40625 10.175781 C 134.707031 11.535156 116.921875 18.316406 104.703125 22.265625 C 90.878906 26.738281 86.917969 27.828125 79.507812 29.230469 C 67.90625 31.429688 61.296875 36.523438 55.945312 47.359375 C 54.429688 50.429688 52.632812 55.34375 51.953125 58.285156 C 51.277344 61.226562 50.402344 63.96875 50.011719 64.367188 C 49.621094 64.765625 49.304688 66.511719 49.304688 68.253906 C 49.304688 71.300781 48.980469 71.953125 44.339844 78.238281 C 43.6875 79.125 42.882812 82.121094 42.546875 84.910156 C 42.101562 88.59375 41.460938 90.507812 40.175781 91.875 C 38.6875 93.460938 38.285156 95.023438 37.699219 101.625 C 36.945312 110.140625 36.585938 111.609375 31.367188 128.203125 C 27.351562 140.976562 24.0625 153.574219 21.871094 164.488281 C 20.195312 172.828125 18.808594 185.132812 19.324219 187.152344 C 19.5 187.851562 21.082031 188.945312 22.828125 189.582031 L 30.277344 192.292969 C 43.4375 197.074219 47.652344 197.886719 60.980469 198.195312 L 73.808594 198.492188 L 76.488281 201.171875 C 78.824219 203.507812 79.632812 203.851562 82.953125 203.851562 C 85.039062 203.851562 86.753906 204.09375 86.75 204.410156 C 86.75 205.953125 82.664062 221.226562 81.804688 222.921875 C 80.25 225.976562 79.691406 235.667969 80.714844 241.667969 C 82.085938 249.707031 81.910156 252.453125 79.519531 260.367188 C 76.988281 268.757812 77.234375 271.527344 81.347656 280.894531 C 84.085938 287.136719 84.253906 290.21875 82.15625 295.53125 C 80.414062 299.960938 80.199219 304.046875 81.582031 306.472656 C 82.230469 307.613281 82.679688 314.089844 82.996094 326.855469 C 83.464844 345.773438 84.835938 356.503906 87.0625 358.792969 C 87.800781 359.554688 89.070312 359.625 92.539062 359.074219 C 97.636719 358.261719 114.71875 359.140625 120.738281 360.53125 C 122.839844 361.019531 128.699219 362.566406 133.742188 363.964844 C 142.929688 366.507812 156.269531 369.324219 162 369.925781 C 163.679688 370.101562 172.460938 370.15625 181.496094 370.042969 C 194.804688 369.878906 199.441406 369.519531 205.941406 368.175781 C 219.527344 365.367188 226.332031 363.207031 241.136719 356.96875 C 257.425781 350.105469 269.355469 346.472656 278.746094 345.511719 C 282.585938 345.121094 284.125 344.625 284.664062 343.613281 C 285.640625 341.792969 285.601562 325.441406 284.605469 317.929688 C 284.171875 314.644531 283.089844 309.84375 282.207031 307.269531 L 280.601562 302.601562 L 283.414062 296.035156 C 288.847656 283.382812 289.640625 273.394531 285.667969 267.539062 C 284.1875 265.355469 283.851562 264.160156 284.238281 262.355469 C 288.742188 241.382812 289.457031 223.78125 286.449219 207.75 L 285.960938 205.171875 L 291.21875 205.761719 C 300.714844 206.835938 304.761719 205.757812 309.359375 200.917969 C 311.011719 199.179688 312.507812 198.476562 315.472656 198.074219 C 324.8125 196.8125 337.09375 193.621094 346.910156 189.902344 C 356.035156 186.445312 355.871094 186.734375 353.421875 178.652344 C 352.589844 175.910156 350.84375 169.875 349.546875 165.25 C 346.421875 154.101562 341.910156 139.558594 337.238281 125.578125 C 333.816406 115.347656 333.472656 113.722656 333.921875 109.839844 C 334.5625 104.328125 333.394531 99.964844 330.609375 97.484375 C 328.601562 95.691406 328.386719 94.996094 327.914062 88.382812 C 327.433594 81.613281 324.472656 67.808594 322.835938 64.75 C 322.421875 63.976562 322.082031 62.488281 322.082031 61.433594 C 322.082031 60.378906 321.160156 57.039062 320.035156 54.011719 C 316.945312 45.671875 311.113281 39.804688 301.113281 34.972656 C 296.882812 32.929688 288.777344 29.671875 283.105469 27.726562 C 252.289062 17.160156 246.125 14.644531 238.398438 9.511719 C 234.785156 7.113281 233.683594 6.71875 232.375 7.347656 C 225.488281 10.652344 205.714844 13.589844 190.332031 13.589844 C 174.925781 13.589844 164.121094 11.464844 152.839844 6.214844 C 150.738281 5.234375 148.242188 4.4375 147.304688 4.433594 Z M 146.273438 7.484375 C 146.714844 7.484375 147.765625 8.820312 148.601562 10.457031 C 151.355469 15.855469 159.488281 25.90625 164.339844 29.910156 C 173.847656 37.75 184.949219 41.46875 193.484375 39.660156 C 202.703125 37.703125 210.71875 33.613281 218.796875 26.757812 C 222.792969 23.371094 230.339844 15.003906 232.757812 11.296875 L 233.996094 9.425781 L 237.160156 11.519531 C 238.902344 12.667969 240.328125 13.964844 240.328125 14.390625 C 240.328125 16.207031 235.53125 24.417969 231.578125 29.378906 C 223.480469 39.542969 212.914062 45.722656 199.066406 48.390625 C 182.269531 51.625 166.671875 46.683594 153.328125 33.886719 C 146.171875 27.023438 138.703125 16.125 138.703125 12.546875 C 138.703125 11.472656 144.667969 7.484375 146.273438 7.484375 Z M 245.246094 16.640625 C 245.359375 16.640625 247.828125 17.628906 250.722656 18.820312 C 253.617188 20.015625 258.050781 21.699219 260.574219 22.578125 L 279.585938 29.171875 C 296.566406 35.066406 305.125 39.046875 309.917969 43.265625 C 313.625 46.527344 317.558594 53.128906 318.976562 58.464844 C 319.945312 62.105469 319.652344 62.90625 314.160156 71.613281 L 311.070312 76.515625 L 310.007812 73.894531 C 308.355469 69.808594 306.890625 68.609375 303.617188 68.609375 C 301.273438 68.609375 300.078125 69.183594 297.636719 71.480469 C 294.125 74.789062 293.40625 77.039062 290.761719 93.054688 C 289.824219 98.726562 288.921875 103.511719 288.757812 103.683594 C 288.59375 103.859375 288.464844 99.292969 288.464844 93.523438 C 288.464844 75.472656 285.34375 58.667969 282 58.667969 C 280.085938 58.667969 279.171875 74.105469 280.246094 88.089844 C 280.699219 93.9375 281.1875 99.980469 281.957031 109.105469 C 283.78125 130.824219 283.082031 152.867188 279.996094 170.980469 C 277.613281 184.96875 277.011719 187.09375 263.988281 226.308594 C 258.113281 244 252.964844 259.535156 252.546875 260.824219 C 251.628906 263.660156 251.542969 267.261719 252.402344 267.261719 C 253.972656 267.261719 258.195312 261.441406 268.480469 245.097656 L 270.160156 242.433594 L 269.644531 244.714844 C 268.804688 248.394531 265.261719 258.292969 259.957031 271.839844 C 254.261719 286.371094 251.003906 293.492188 247.4375 299.171875 C 244.648438 303.613281 244.316406 305.28125 246.085938 305.957031 C 248.160156 306.753906 250.324219 303.785156 255.640625 292.851562 C 261.667969 280.464844 265.679688 270.339844 274.285156 245.863281 C 275.6875 241.871094 277.078125 238.011719 277.375 237.277344 C 278.027344 235.671875 279.289062 236.246094 279.289062 238.148438 C 279.289062 238.894531 280.378906 241.679688 281.707031 244.332031 C 284.324219 249.570312 284.324219 249.714844 281.617188 263.0625 C 280.269531 269.703125 264.550781 299.066406 252.03125 318.34375 C 247.78125 324.890625 247.214844 327.238281 249.882812 327.238281 C 250.941406 327.238281 252.714844 325.265625 255.714844 320.742188 C 261.910156 311.402344 272.496094 293.058594 278.730469 280.878906 C 281.6875 275.101562 284.375 270.535156 284.695312 270.734375 C 285.886719 271.46875 286.261719 277.273438 285.402344 281.558594 C 283.597656 290.515625 278.910156 301.734375 274.785156 306.988281 C 269.15625 314.160156 262.910156 320.808594 258.910156 323.894531 C 255.890625 326.222656 254.828125 327.539062 254.992188 328.695312 C 255.117188 329.570312 255.746094 330.386719 256.378906 330.507812 C 258.125 330.839844 266.722656 323.265625 273.546875 315.398438 L 279.644531 308.359375 L 280.527344 310.539062 C 281.9375 314.0625 283.261719 327.421875 282.988281 335.261719 L 282.738281 342.523438 L 280.4375 342.730469 C 270.371094 343.625 255.757812 348.015625 239.179688 355.128906 C 228.121094 359.871094 216.050781 363.617188 204.765625 365.804688 C 195.351562 367.625 172.339844 368.476562 162.382812 367.378906 C 154.363281 366.496094 141.925781 363.875 133.359375 361.253906 C 123.789062 358.324219 114.585938 356.65625 107.867188 356.644531 C 104.867188 356.636719 101.714844 356.445312 100.875 356.21875 C 98.9375 355.695312 88.472656 335.25 89.386719 333.773438 C 90.285156 332.324219 95.199219 333.125 109.664062 337.101562 C 120 339.945312 136.632812 344.121094 142.898438 345.4375 C 148.0625 346.523438 151.9375 347.285156 160.867188 348.957031 C 171.121094 350.878906 200.855469 353.613281 211.285156 353.597656 C 218.742188 353.585938 235.230469 351.636719 237.320312 350.519531 C 238.558594 349.855469 238.742188 349.421875 238.074219 348.75 C 237.042969 347.722656 228.144531 347.902344 224.199219 349.03125 C 220.695312 350.035156 212.878906 349.972656 208.429688 348.898438 C 196.429688 346.003906 173.488281 337.433594 156.773438 329.609375 C 152.636719 327.671875 149.113281 326.089844 148.941406 326.089844 C 148.238281 326.089844 133.617188 317.402344 128.5 313.941406 C 120.113281 308.265625 110.925781 298.140625 105.175781 288.257812 C 102.488281 283.640625 98.464844 276.753906 96.238281 272.957031 C 86.53125 256.421875 83.730469 244.34375 89.59375 244.34375 C 91.25 244.34375 93.121094 245.792969 98.210938 251.046875 C 103.597656 256.605469 105.796875 259.703125 111.109375 269.1875 C 119.257812 283.730469 126.042969 293.953125 132.519531 301.453125 C 137.957031 307.746094 141.003906 309.386719 141.003906 306.015625 C 141.003906 305.003906 140.261719 303.519531 139.367188 302.71875 C 137.390625 300.945312 131.0625 292.808594 131.0625 292.042969 C 131.0625 291.738281 132.863281 293.199219 135.066406 295.28125 C 153.292969 312.496094 183.480469 326.847656 211.671875 331.699219 C 230.480469 334.9375 231.917969 335.046875 231.917969 333.347656 C 231.917969 332.71875 231.738281 332.199219 231.519531 332.199219 C 230.109375 332.199219 218.835938 328.800781 215.941406 327.503906 C 207.0625 323.515625 200.082031 319.6875 198.683594 318.046875 C 197.84375 317.0625 194.746094 314.644531 191.804688 312.671875 C 163.921875 293.984375 130.863281 255.972656 113.449219 222.566406 C 110.820312 217.523438 107.917969 212.652344 106.984375 211.742188 C 103.503906 208.339844 96.433594 182.425781 92.953125 160.289062 C 88.101562 129.449219 87.21875 91.089844 90.433594 51.054688 C 90.90625 45.152344 91.121094 44.5 92.863281 43.664062 C 93.914062 43.15625 103.53125 39.902344 114.246094 36.433594 C 124.960938 32.960938 135.164062 29.5 136.910156 28.730469 C 138.65625 27.960938 140.554688 27.519531 141.121094 27.757812 C 141.683594 27.996094 143.625 30.050781 145.433594 32.308594 C 149.441406 37.308594 157.390625 43.84375 163.414062 47.109375 C 173.320312 52.472656 185.757812 54.8125 196.546875 53.335938 C 216.40625 50.617188 231.136719 40.542969 241.59375 22.5625 C 243.488281 19.304688 245.128906 16.640625 245.246094 16.640625 Z M 74.75 53.058594 C 75.820312 52.871094 75.871094 54.214844 74.78125 56.992188 C 73.433594 60.421875 71.660156 61.128906 69.863281 58.964844 C 68.976562 57.898438 69.242188 57.386719 71.761719 55.078125 C 73.101562 53.847656 74.109375 53.171875 74.75 53.058594 Z M 66.945312 62.484375 C 67.28125 62.484375 68.464844 63.269531 69.566406 64.222656 L 71.570312 65.945312 L 70.40625 70.90625 C 69.769531 73.632812 69.050781 77.148438 68.800781 78.726562 C 68.550781 80.300781 68.074219 81.597656 67.757812 81.597656 C 67.035156 81.597656 62.292969 76.75 62.292969 76.015625 C 62.292969 75.722656 62.769531 75.484375 63.351562 75.484375 C 64.804688 75.484375 65.386719 73.714844 65.902344 67.652344 C 66.140625 64.816406 66.609375 62.484375 66.945312 62.484375 Z M 321.304688 69.359375 C 322.304688 69.359375 324.382812 79.128906 325.414062 88.652344 C 326.296875 96.835938 326.542969 97.703125 328.402344 99.164062 C 331.03125 101.234375 331.980469 104.8125 331.199219 109.753906 C 330.648438 113.230469 330.898438 114.636719 333.277344 121.519531 C 340.21875 141.628906 349.707031 173.472656 348.972656 174.164062 C 348.191406 174.902344 341.675781 176.800781 328.253906 180.214844 C 321.777344 181.863281 316.019531 183.222656 315.457031 183.222656 C 314.210938 183.222656 314.152344 179.386719 315.164062 163.605469 C 315.5625 157.375 316.066406 135.15625 316.28125 114.246094 L 316.679688 76.222656 L 318.683594 72.792969 C 319.789062 70.90625 320.96875 69.359375 321.304688 69.359375 Z M 303.515625 73.335938 C 305.472656 73.351562 306.023438 74.554688 305.929688 77.769531 C 305.863281 80.03125 305.09375 81.144531 300.9375 85 L 296.035156 89.550781 L 296.519531 86.148438 C 296.785156 84.273438 297.28125 81.710938 297.625 80.449219 C 297.96875 79.1875 298.464844 77.226562 298.714844 76.089844 C 299.078125 74.453125 299.746094 73.90625 301.925781 73.5 C 302.535156 73.382812 303.0625 73.332031 303.515625 73.335938 Z M 59.816406 81.671875 C 60.351562 81.667969 61.460938 82.507812 63.644531 84.46875 L 67.679688 88.089844 L 66.796875 91.140625 C 65.886719 94.308594 66.152344 110.308594 67.59375 140.042969 C 67.980469 148.027344 68.660156 163.257812 69.09375 173.882812 C 69.527344 184.507812 70.078125 193.511719 70.316406 193.894531 C 70.554688 194.28125 70.066406 194.957031 69.242188 195.398438 C 65.582031 197.355469 43.648438 195.152344 41.542969 192.613281 C 41.046875 192.019531 40.660156 189.921875 40.671875 187.945312 C 40.6875 185.792969 40.222656 183.816406 39.523438 183.011719 C 38.535156 181.875 38.503906 181.195312 39.320312 178.433594 C 41.316406 171.660156 46.976562 164.9375 54.882812 159.9375 C 57.324219 158.394531 59.511719 156.636719 59.742188 156.035156 C 60.753906 153.402344 58.855469 150.4375 51.601562 143.371094 L 44.03125 136.007812 L 44.828125 133.0625 C 45.265625 131.441406 46.625 126.53125 47.84375 122.152344 C 49.066406 117.773438 50.070312 113.292969 50.070312 112.195312 C 50.070312 109.285156 52.085938 106.875 55.886719 105.246094 C 59.621094 103.644531 60.058594 102.222656 58.035156 98.3125 C 56.957031 96.222656 56.960938 95.398438 58.019531 89.753906 C 58.664062 86.320312 59.285156 82.914062 59.40625 82.1875 C 59.457031 81.859375 59.574219 81.671875 59.816406 81.671875 Z M 311.671875 83.996094 C 311.722656 83.996094 311.777344 84.015625 311.820312 84.058594 C 312.46875 84.707031 310.519531 183.691406 309.800781 186.402344 C 308.984375 189.488281 305.796875 192.589844 301.644531 194.324219 C 300.171875 194.9375 298.308594 195.441406 297.492188 195.441406 C 296.042969 195.441406 296.015625 194.863281 296.519531 171.175781 C 296.957031 150.527344 297.261719 146.070312 298.550781 141.195312 C 300.875 132.410156 301.902344 128.230469 302.953125 123.226562 C 303.484375 120.707031 304.183594 117.613281 304.515625 116.351562 C 304.847656 115.089844 305.691406 110.800781 306.386719 106.808594 C 307.078125 102.816406 307.976562 98.101562 308.375 96.339844 C 308.769531 94.578125 309.09375 92.078125 309.09375 90.773438 C 309.09375 88.632812 310.902344 84.023438 311.671875 84 Z M 305.441406 86.558594 L 305.015625 88.855469 C 304.777344 90.117188 304.367188 92.695312 304.101562 94.585938 C 303.234375 100.78125 297.875 126.671875 297.359375 127.1875 C 297.195312 127.351562 296.855469 126.429688 296.59375 125.128906 C 296.332031 123.824219 295.773438 122.96875 295.355469 123.226562 C 294.9375 123.484375 294.273438 124.796875 293.882812 126.144531 C 292.949219 129.378906 292.847656 113.316406 293.75 105.511719 C 294.308594 100.710938 294.824219 99.386719 297.828125 95.191406 C 299.726562 92.542969 302.222656 89.527344 303.367188 88.476562 L 305.441406 86.5625 Z M 349.988281 178.890625 C 350.664062 178.839844 351.125 179.351562 351.402344 180.453125 C 351.660156 181.476562 352.070312 182.832031 352.316406 183.472656 C 352.609375 184.242188 352.011719 185.027344 350.546875 185.785156 C 346.886719 187.675781 334.433594 191.609375 325.898438 193.574219 C 316.695312 195.691406 313.675781 195.898438 313.675781 194.398438 C 313.675781 193.824219 313.886719 191.816406 314.144531 189.9375 C 314.570312 186.851562 314.78125 186.550781 316.398438 186.859375 C 318.070312 187.175781 327.164062 185.511719 332.390625 183.929688 C 333.652344 183.546875 337.785156 182.359375 341.566406 181.277344 C 345.347656 180.195312 349.007812 179.132812 349.695312 178.9375 C 349.800781 178.90625 349.890625 178.898438 349.988281 178.890625 Z M 77.09375 179.496094 C 77.109375 179.488281 77.117188 179.492188 77.136719 179.511719 C 77.433594 179.78125 78.878906 184.242188 80.363281 189.433594 C 81.84375 194.625 83.246094 199.480469 83.46875 200.214844 C 83.753906 201.164062 83.441406 201.554688 82.394531 201.554688 C 79.675781 201.554688 78.203125 199.746094 78.007812 196.164062 C 77.902344 194.296875 77.546875 189.667969 77.210938 185.886719 C 76.894531 182.339844 76.855469 179.601562 77.09375 179.496094 Z M 308.742188 196.0625 C 308.96875 196.027344 309.09375 196.054688 309.09375 196.148438 C 309.09375 197.375 305.160156 201.578125 302.925781 202.734375 C 300.339844 204.070312 296.410156 204.195312 295.648438 202.96875 C 295.046875 201.992188 297.304688 200.023438 299.023438 200.023438 C 299.625 200.023438 302.136719 198.996094 304.605469 197.742188 C 306.453125 196.800781 308.058594 196.160156 308.742188 196.0625 Z M 87.460938 214.21875 C 87.644531 214.234375 87.832031 214.640625 88.109375 215.308594 C 89.335938 218.277344 91.941406 225.433594 92.480469 227.339844 C 92.75 228.285156 92.851562 229.050781 92.71875 229.03125 C 92.582031 229.015625 90.816406 227.472656 88.785156 225.601562 L 85.089844 222.199219 L 86.207031 217.796875 C 86.859375 215.226562 87.152344 214.191406 87.460938 214.21875 Z M 100.152344 233.390625 C 100.441406 233.488281 101.800781 235.53125 103.585938 238.605469 C 114.050781 256.632812 124.285156 268.671875 138.707031 279.925781 C 146.945312 286.355469 153.226562 292.488281 153.226562 294.121094 C 153.226562 297.089844 146.308594 294.734375 136.628906 288.464844 C 128.921875 283.476562 125.1875 279.269531 118.355469 267.9375 C 114.960938 262.3125 110.734375 255.367188 108.972656 252.507812 C 105.875 247.472656 101.238281 237.5625 100.140625 233.640625 C 100.082031 233.445312 100.085938 233.371094 100.152344 233.390625 Z M 80.570312 266.878906 L 82.011719 270.324219 C 90.480469 290.546875 101.03125 307.546875 109.121094 314 C 112.453125 316.65625 133.648438 327.613281 135.464844 327.621094 C 136.226562 327.625 146.300781 331.761719 149.144531 333.230469 C 150.394531 333.878906 151.867188 334.945312 152.414062 335.601562 C 153.851562 337.332031 152.742188 337.082031 141.003906 333.171875 C 131.949219 330.15625 110.882812 321.273438 96.871094 314.546875 C 91.722656 312.074219 87.050781 310.054688 86.488281 310.054688 C 85.925781 310.054688 84.820312 308.144531 84.027344 305.8125 C 82.589844 301.582031 82.582031 301.558594 84.28125 296.832031 C 86.636719 290.257812 86.480469 286.082031 83.660156 280.058594 C 82.386719 277.335938 81.179688 273.265625 80.964844 271 Z M 85.488281 313.867188 C 85.675781 313.867188 90.246094 316.03125 95.648438 318.667969 L 111.199219 326.265625 C 117.820312 329.5 117.710938 329.542969 108.519531 327.269531 C 98.164062 324.707031 91.828125 323.640625 88.550781 323.925781 L 85.605469 324.191406 L 85.371094 319.023438 C 85.246094 316.183594 85.300781 313.867188 85.488281 313.867188 Z M 85.488281 313.867188 " fill-opacity="0.071" fill-rule="nonzero"></path><g clip-path="url(#021a76f8a5)"><path fill="#ffffff" d="M 148.214844 -0.0078125 C 148.054688 -0.015625 147.886719 -0.00390625 147.710938 0.00390625 L 147.683594 0.00390625 C 147.550781 0.00390625 147.390625 0.0351562 147.226562 0.0625 C 147.207031 0.0664062 147.1875 0.0585938 147.167969 0.0625 C 145.070312 0.398438 141.941406 1.902344 136.652344 5.011719 C 126.714844 10.855469 95.542969 21.878906 80.371094 24.921875 C 71.605469 26.679688 65.988281 28.976562 61.359375 32.695312 C 57.828125 35.535156 52.492188 43.289062 50.140625 49.011719 C 47.722656 54.882812 44.585938 65.78125 44.585938 68.289062 C 44.585938 69.675781 43.585938 71.816406 41.980469 73.898438 C 39.261719 77.421875 37.71875 81.726562 37.710938 85.78125 C 37.707031 87.097656 37.226562 88.574219 36.636719 89.066406 C 34.300781 91.003906 33.035156 95.339844 32.71875 102.480469 C 32.464844 108.222656 31.765625 111.605469 29.347656 119.078125 C 22.542969 140.082031 17.828125 158.273438 16.695312 167.820312 C 16.535156 169.179688 16.285156 172.738281 16.0625 176.6875 C 16.054688 176.859375 16.042969 177.011719 16.035156 177.1875 C 15.921875 178.914062 15.8125 180.632812 15.753906 182.207031 C 15.6875 184.027344 15.65625 185.449219 15.636719 186.65625 C 15.589844 189.402344 15.675781 190.808594 15.992188 191.617188 C 15.996094 191.636719 16 191.660156 16.003906 191.675781 C 16.507812 193.378906 17.585938 193.789062 19.613281 194.210938 C 20.949219 194.488281 23.929688 195.511719 26.238281 196.476562 C 30.53125 198.273438 38.433594 200.730469 44.585938 202.207031 C 46.480469 202.660156 53.34375 203.230469 59.859375 203.472656 C 70.929688 203.882812 71.835938 204.027344 73.640625 205.710938 C 74.703125 206.699219 76.71875 207.917969 78.117188 208.40625 C 78.871094 208.667969 79.394531 208.851562 79.753906 209.082031 L 79.765625 209.097656 C 79.984375 209.265625 80.148438 209.46875 80.28125 209.699219 C 80.484375 210.210938 80.382812 210.96875 80.164062 212.320312 C 79.898438 213.992188 78.964844 217.300781 78.089844 219.671875 C 77.214844 222.042969 76.179688 226.042969 75.777344 228.566406 C 74.972656 233.59375 75.496094 243.785156 76.792969 248.136719 C 77.472656 250.417969 77.351562 251.621094 76.101562 255.011719 C 72.09375 265.867188 72.273438 273.25 76.75 282.710938 C 79.375 288.257812 79.484375 290.265625 77.441406 295.035156 C 75.71875 299.058594 75.4375 305.378906 76.867188 307.890625 C 77.515625 309.03125 77.960938 315.625 78.28125 328.65625 C 78.671875 344.777344 79.003906 348.875 80.460938 354.910156 C 81.835938 360.625 82.351562 363.078125 84.921875 364.039062 L 84.964844 364.054688 C 85.691406 364.417969 86.566406 364.5625 87.644531 364.542969 C 89.660156 364.679688 92.390625 364.558594 96.289062 364.410156 C 110.144531 363.882812 117.488281 364.789062 131.484375 368.738281 C 142.0625 371.722656 146.980469 372.761719 156.136719 373.996094 C 157 374.113281 158.589844 374.230469 160.566406 374.335938 C 161.050781 374.4375 161.390625 374.539062 161.453125 374.597656 C 161.699219 374.847656 166.820312 374.859375 173.4375 374.746094 L 173.613281 374.746094 C 174.792969 374.765625 175.976562 374.769531 177.148438 374.777344 C 204.445312 374.964844 216.21875 372.671875 242.089844 362.113281 C 262.226562 353.890625 269.179688 351.808594 280.800781 350.507812 C 284.175781 350.128906 287.28125 349.488281 287.695312 349.078125 C 291.066406 345.707031 290.199219 315.453125 286.472656 306.535156 C 285.40625 303.984375 285.464844 303.542969 287.515625 298.570312 C 291.351562 289.273438 292.425781 284.722656 292.421875 277.851562 C 292.414062 272.582031 292.085938 270.714844 290.667969 267.96875 C 288.738281 264.242188 288.757812 263.371094 291.082031 251.492188 C 292.097656 246.285156 292.441406 240.578125 292.480469 228.035156 L 292.523438 211.511719 L 293.261719 211.46875 L 297.207031 211.46875 C 302.78125 211.46875 306.835938 209.9375 310.472656 206.445312 C 312.847656 204.167969 314.105469 203.695312 321.679688 202.265625 C 336.777344 199.414062 354.984375 193.238281 358.082031 189.910156 C 358.460938 189.503906 358.734375 189.167969 358.921875 188.773438 L 358.9375 188.746094 C 359.234375 188.292969 359.378906 187.84375 359.378906 187.390625 C 359.378906 187.027344 359.214844 186.140625 358.953125 184.960938 C 358.746094 183.679688 358.417969 182.011719 357.949219 179.660156 C 356.554688 172.667969 346.074219 138.085938 340.589844 122.363281 C 338.257812 115.6875 337.984375 114.132812 338.410156 110.097656 C 338.996094 104.515625 337.96875 100.328125 335.050781 96.300781 C 333.367188 93.976562 332.777344 92.113281 332.386719 87.964844 C 331.457031 78.105469 325.585938 55.0625 322.402344 48.792969 C 316.582031 37.339844 307.886719 32.0625 277.769531 21.742188 C 256.179688 14.34375 247.484375 10.761719 241.542969 6.78125 C 238.484375 4.734375 235.367188 2.820312 234.605469 2.539062 C 233.816406 2.25 231.367188 2.8125 228.878906 3.851562 C 220.296875 7.429688 205.867188 9.605469 190.519531 9.636719 C 174.117188 9.675781 165.15625 7.632812 149.492188 0.300781 C 149.109375 0.125 148.691406 0.015625 148.210938 -0.0078125 Z M 146.742188 6.617188 C 146.746094 6.617188 146.75 6.613281 146.753906 6.617188 C 146.761719 6.621094 146.765625 6.628906 146.769531 6.632812 L 150.421875 12.90625 C 155.035156 20.847656 165.949219 31.917969 172.585938 35.40625 C 175.113281 36.734375 179.75 38.417969 182.890625 39.132812 C 187.835938 40.253906 189.265625 40.292969 193.570312 39.457031 C 199.628906 38.273438 206.425781 35.308594 212.402344 31.222656 C 216.828125 28.199219 228.054688 17.097656 231.855469 11.992188 L 233.828125 9.355469 L 237.378906 11.609375 C 239.582031 13 240.941406 14.421875 240.941406 15.320312 C 240.941406 17.398438 236.332031 25.304688 232.003906 30.648438 C 223.875 40.679688 213.316406 47.039062 200.253906 49.761719 C 176.871094 54.640625 152.046875 41.960938 140.320312 19.148438 C 136.953125 12.597656 137.054688 12.179688 142.851562 8.839844 L 146.738281 6.617188 Z M 152.808594 9.828125 C 153.464844 9.867188 155.785156 10.554688 158.417969 11.507812 C 167.917969 14.933594 172.242188 15.871094 183.554688 16.070312 C 187.945312 16.527344 190.757812 16.527344 196.144531 16.070312 C 208.558594 15.847656 216.640625 14.859375 224.125 12.714844 C 225.546875 12.304688 226.847656 12.105469 227.011719 12.273438 C 227.175781 12.4375 225.132812 14.867188 222.476562 17.660156 C 217.578125 22.8125 217.269531 22.964844 208.472656 24.964844 C 203.824219 26.023438 184.742188 26.476562 178.355469 25.671875 C 175.242188 25.28125 169.898438 24.097656 166.472656 23.050781 C 160.261719 21.15625 160.222656 21.148438 156.269531 15.671875 C 154.085938 12.65625 152.457031 10.03125 152.632812 9.855469 C 152.652344 9.835938 152.714844 9.820312 152.808594 9.828125 Z M 133.914062 14.289062 C 133.921875 14.289062 133.921875 14.304688 133.929688 14.304688 L 137.183594 20.546875 C 139.785156 25.546875 142.140625 28.527344 148.859375 35.289062 C 155.722656 42.1875 158.414062 44.332031 163.394531 46.863281 C 178.53125 54.546875 192.679688 55.699219 208.234375 50.515625 C 222.367188 45.804688 234.621094 34.949219 242.121094 20.488281 C 243.632812 17.570312 244.570312 16.515625 245.445312 16.792969 C 246.121094 17.003906 249.953125 18.457031 253.945312 20.003906 C 257.9375 21.546875 268.546875 25.339844 277.535156 28.441406 C 307.441406 38.753906 314.503906 43.679688 318.898438 57.289062 L 320.386719 61.867188 C 320.394531 62.027344 320.402344 62.191406 320.402344 62.339844 C 320.402344 62.449219 320.375 62.578125 320.34375 62.734375 L 316.96875 68.773438 C 315 72.285156 312.574219 76.144531 311.582031 77.359375 C 309.820312 79.507812 309.765625 79.527344 309.738281 77.816406 C 309.707031 75.84375 307.664062 71.457031 306.367188 70.601562 C 305.027344 69.714844 300.941406 69.929688 299.933594 70.9375 C 298.011719 72.859375 298.886719 73.882812 302.007812 73.382812 C 304.515625 72.984375 305.121094 73.160156 305.824219 74.472656 C 307.078125 76.820312 306.902344 82.246094 305.574219 82.246094 C 304.976562 82.246094 302.4375 84.511719 299.933594 87.285156 C 297.429688 90.058594 295.195312 92.039062 294.96875 91.671875 C 294.566406 91.023438 295.15625 87.550781 297.089844 79.183594 C 297.625 76.875 297.894531 74.710938 297.695312 74.371094 C 296.832031 72.882812 294.679688 76.457031 293.777344 80.878906 C 291.46875 92.167969 291.117188 94.371094 290.15625 103.527344 C 289.726562 107.574219 288.449219 138.492188 287.5625 166.289062 C 287.140625 179.527344 286.535156 192.597656 286.207031 195.328125 C 285.867188 198.171875 282.792969 208.621094 279.023438 219.773438 C 275.394531 230.488281 271.320312 242.695312 269.964844 246.898438 C 264.023438 265.347656 253.644531 290.785156 248.554688 299.382812 C 246.890625 302.1875 245.535156 304.691406 245.535156 304.964844 C 245.535156 305.234375 246.265625 305.347656 247.167969 305.214844 C 250.800781 304.671875 261.3125 281.113281 273.011719 247.28125 C 273.957031 244.550781 275.878906 239.398438 277.285156 235.824219 C 278.6875 232.253906 280.925781 226.160156 282.261719 222.277344 C 283.59375 218.394531 284.984375 215.40625 285.351562 215.636719 C 286.296875 216.21875 286.191406 237.082031 285.207031 244.953125 C 283.011719 262.5 281.566406 267.578125 275.222656 279.972656 C 269.058594 292.015625 261.933594 304.480469 253.355469 318.214844 C 249.984375 323.609375 248.667969 326.367188 249.203125 326.902344 C 249.632812 327.335938 250.339844 327.46875 250.777344 327.199219 C 252.773438 325.964844 271.089844 294.6875 278.976562 279.058594 C 283.488281 270.121094 284.0625 269.324219 285 270.605469 C 286.722656 272.960938 286.617188 280.347656 284.777344 287.007812 C 282.839844 294.027344 278.339844 303.960938 275.089844 308.40625 C 273.398438 310.71875 268.269531 316.304688 263.691406 320.820312 C 255.71875 328.679688 253.601562 332.207031 258.625 329.242188 C 261.085938 327.789062 272.4375 316.324219 276.988281 310.703125 L 279.773438 307.257812 L 280.625 309.4375 C 282.160156 313.390625 283.347656 323.898438 283.644531 332.21875 C 283.644531 332.285156 283.644531 332.355469 283.644531 332.421875 C 283.640625 333.058594 283.617188 333.691406 283.601562 334.324219 L 283.410156 341.640625 L 283.410156 341.65625 C 283.265625 342.546875 283.070312 343.15625 282.820312 343.410156 C 282.316406 343.914062 280.75 344.320312 279.34375 344.320312 C 272.1875 344.320312 257.996094 348.605469 239.421875 356.367188 C 222.371094 363.492188 208.839844 367.128906 193.449219 368.75 C 186.785156 369.453125 171.367188 369.605469 165.308594 369.03125 C 155.558594 368.105469 142.914062 365.484375 130.808594 361.890625 C 121.050781 358.992188 107.75 357.210938 97.054688 357.367188 C 92.503906 357.4375 88.496094 357.191406 88.144531 356.824219 C 86.671875 355.277344 85.101562 340.761719 84.804688 325.945312 C 84.546875 313.28125 84.21875 309.492188 83.09375 306.328125 C 82.4375 304.476562 82.089844 303.476562 82.09375 302.425781 C 82.101562 302.277344 82.113281 302.121094 82.125 301.96875 C 82.125 301.9375 82.136719 301.902344 82.136719 301.867188 C 82.253906 300.859375 82.671875 299.65625 83.40625 297.566406 C 85.777344 290.816406 85.59375 286.804688 82.640625 280.441406 C 79.308594 273.265625 79.226562 267.132812 82.34375 257.808594 L 84.566406 251.136719 L 83.300781 245.851562 C 81.425781 238.085938 81.640625 230.367188 83.933594 223.144531 C 84.984375 219.835938 86.046875 216.003906 86.304688 214.632812 C 86.847656 211.738281 87.78125 211.382812 88.367188 213.851562 C 89.503906 218.644531 98.304688 242.609375 101.648438 250.019531 C 108.28125 264.707031 120.289062 285.40625 128.4375 296.183594 C 131.832031 300.675781 138.496094 307.640625 139.390625 307.640625 C 141.039062 307.640625 139.839844 305.140625 136.195312 301 C 134.050781 298.558594 130.824219 294.507812 129.039062 291.984375 C 121.078125 280.738281 105.28125 250.558594 99.042969 234.675781 C 96.484375 228.160156 91.582031 213.183594 87.027344 198.007812 C 85.894531 194.226562 84.664062 190.269531 84.304688 189.21875 C 81.640625 181.46875 77.71875 157.78125 78.488281 154.113281 C 78.710938 153.035156 78.417969 149.230469 77.839844 145.660156 C 75.042969 128.445312 74.53125 109.871094 76.378906 93.707031 C 78.433594 75.78125 78.496094 72.375 76.910156 68.128906 C 75.824219 65.214844 74.6875 63.796875 72.066406 62.0625 C 70.183594 60.816406 68.382812 59.339844 68.046875 58.792969 C 67.148438 57.324219 63.855469 57.585938 62.996094 59.191406 C 62.585938 59.953125 62.136719 62.789062 61.992188 65.492188 C 61.851562 68.195312 61.402344 70.382812 60.992188 70.367188 C 59.839844 70.320312 54.320312 60.761719 54.320312 58.808594 C 54.320312 56.128906 57.523438 48.730469 60.773438 43.890625 C 65.40625 36.980469 69.683594 34.292969 79.355469 32.199219 C 93.273438 29.183594 118.371094 21.207031 129.554688 16.234375 L 133.914062 14.292969 Z M 168.109375 27.425781 C 168.417969 27.410156 169.019531 27.507812 169.964844 27.675781 C 171.398438 27.925781 173.765625 28.519531 175.234375 28.984375 C 179.132812 30.214844 203.152344 30.113281 206.808594 28.851562 C 208.410156 28.300781 209.90625 28.019531 210.121094 28.234375 C 210.679688 28.792969 204.199219 32.464844 199.488281 34.257812 C 194.859375 36.019531 186.125 36.679688 181.816406 35.597656 C 178.128906 34.671875 170.425781 30.617188 168.667969 28.675781 C 167.875 27.800781 167.59375 27.449219 168.109375 27.425781 Z M 66.835938 62.546875 C 68.746094 62.617188 72.6875 67.0625 73.609375 70.363281 C 74.5 73.535156 74.1875 82.164062 73.082031 85.046875 C 72.867188 85.601562 72.46875 86.054688 72.199219 86.046875 C 70.800781 86.007812 64.371094 81.246094 62.273438 78.699219 C 59.3125 75.105469 59.144531 73.621094 61.773438 74.28125 C 64.054688 74.855469 64.316406 74.328125 65.054688 67.730469 C 65.351562 65.066406 65.996094 62.75 66.484375 62.589844 C 66.589844 62.554688 66.710938 62.539062 66.835938 62.546875 Z M 321.417969 68.199219 C 321.691406 68.214844 321.867188 68.628906 322.121094 69.304688 C 323.550781 73.078125 325.6875 84.335938 326.203125 90.804688 C 326.679688 96.824219 326.929688 97.636719 328.898438 99.390625 C 331.601562 101.800781 332.1875 104.039062 331.652344 109.960938 C 331.269531 114.171875 331.628906 115.769531 335.40625 126.882812 C 339.023438 137.535156 350.023438 173.238281 350.191406 174.859375 C 350.183594 174.902344 350.1875 174.945312 350.175781 174.988281 C 349.550781 175.679688 339.449219 178.945312 333.402344 180.394531 C 330.671875 181.046875 327.230469 181.902344 325.761719 182.292969 C 324.289062 182.683594 321.453125 183.414062 319.457031 183.914062 C 315.726562 184.851562 314.390625 186.917969 317.511719 186.917969 C 319.71875 186.917969 333.308594 183.570312 342.855469 180.675781 C 347.003906 179.417969 350.644531 178.675781 350.957031 179.023438 C 351.269531 179.375 351.933594 180.867188 352.429688 182.339844 C 353.230469 184.726562 353.152344 185.144531 351.75 186.285156 C 349.617188 188.019531 335.632812 192.605469 325.378906 194.929688 C 320.753906 195.976562 316.011719 196.839844 314.832031 196.84375 L 312.683594 196.859375 L 313.097656 190.554688 C 314.0625 175.605469 314.542969 157.222656 314.980469 118.148438 L 315.453125 76.707031 C 315.53125 76.523438 315.617188 76.332031 315.71875 76.121094 L 318.425781 71.96875 C 320.226562 69.230469 320.957031 68.171875 321.414062 68.195312 Z M 51.273438 69.261719 C 51.589844 69.261719 52.695312 70.890625 53.746094 72.882812 C 55.65625 76.507812 63.867188 84.933594 69.546875 89.109375 L 72.550781 91.335938 L 71.890625 97.679688 C 71.148438 104.6875 71.769531 129.796875 72.90625 138.78125 C 73.304688 141.933594 73.933594 148.984375 74.320312 154.449219 C 74.703125 159.910156 75.378906 166.449219 75.804688 168.96875 C 76.710938 174.332031 80.601562 189.535156 82.859375 196.519531 C 83.726562 199.199219 84.214844 201.742188 83.949219 202.175781 C 82.921875 203.835938 80.15625 202.855469 77.367188 199.832031 C 74.269531 196.476562 73.859375 196.375 66.351562 197.257812 C 65.957031 197.304688 65.539062 197.339844 65.128906 197.375 L 61.726562 197.34375 C 59.988281 197.324219 58.523438 197.296875 57.175781 197.269531 C 48.140625 196.484375 37.0625 193.59375 25.855469 188.964844 C 22.089844 187.410156 21.238281 186.714844 21.039062 185.078125 C 20.898438 183.910156 21.234375 182.929688 21.851562 182.691406 C 22.429688 182.472656 26.449219 183.523438 30.789062 185.035156 C 36.410156 186.992188 38.921875 187.546875 39.507812 186.964844 C 40.996094 185.476562 37.558594 183.195312 29.773438 180.484375 C 25.933594 179.148438 22.6875 177.957031 22.144531 177.6875 C 22.089844 177.597656 22.039062 177.5 21.996094 177.40625 C 21.976562 175.472656 24.628906 161.054688 26.3125 154.09375 C 28.417969 145.40625 34.476562 124.757812 36.222656 120.328125 C 37.910156 116.050781 39.988281 104.65625 39.992188 99.683594 C 39.996094 97.003906 40.472656 95.550781 41.890625 93.867188 C 44.410156 90.875 45.351562 88.199219 45.351562 84.03125 C 45.351562 81.183594 45.816406 80.019531 48.019531 77.449219 C 49.910156 75.238281 50.699219 73.589844 50.699219 71.792969 C 50.699219 70.398438 50.957031 69.261719 51.273438 69.261719 Z M 312.214844 83.027344 C 312.265625 83.035156 312.308594 83.050781 312.34375 83.085938 C 312.910156 83.652344 311.417969 180.941406 310.785156 185.003906 C 310.078125 189.519531 308.445312 191.785156 303.894531 194.546875 C 300.742188 196.457031 298.636719 197.117188 294.703125 197.433594 L 289.609375 197.84375 L 290.125 194.871094 C 291.175781 188.835938 292.113281 160.644531 292.070312 136.496094 C 292.023438 112.863281 292.707031 102.324219 294.511719 98.914062 C 295.90625 96.285156 304.421875 86.058594 305.21875 86.058594 C 305.769531 86.058594 305.875 87.40625 305.542969 90.078125 C 304.082031 101.851562 298.441406 128.816406 296.398438 133.816406 C 295.882812 135.074219 294.828125 138.601562 294.042969 141.648438 C 292.894531 146.109375 292.796875 147.378906 293.570312 148.144531 C 294.339844 148.902344 294.730469 148.835938 295.515625 147.773438 C 296.320312 146.683594 299.453125 134.832031 303.628906 117.011719 C 304.824219 111.90625 306.453125 102.855469 307.414062 96 C 307.914062 92.425781 308.464844 88.8125 308.636719 87.972656 C 308.996094 86.199219 311.421875 82.933594 312.214844 83.027344 Z M 308.988281 195.328125 C 311.777344 195.328125 306.371094 202.519531 302.300781 204.21875 C 299.890625 205.226562 297.144531 205.417969 294.054688 204.765625 L 290.800781 204.074219 C 287.832031 203.441406 288.71875 201.4375 291.964844 201.4375 C 295.152344 201.4375 301.488281 199.328125 305.601562 196.902344 C 307.074219 196.035156 308.59375 195.324219 308.988281 195.324219 Z M 105.917969 213.761719 C 104.277344 213.675781 104.84375 215.796875 108.082031 222.273438 C 125.746094 257.605469 158.6875 295.824219 190.136719 317.445312 C 195.457031 321.105469 199.8125 321.835938 197.574219 318.699219 C 197.265625 318.265625 193.480469 315.410156 189.164062 312.351562 C 178.816406 305.015625 173.5 300.566406 163.5 290.867188 C 144.15625 272.109375 124.648438 246.269531 112.460938 223.230469 C 109.5 217.640625 107.105469 213.964844 106.289062 213.808594 C 106.160156 213.78125 106.03125 213.769531 105.921875 213.761719 Z M 86.613281 312.089844 C 86.039062 312.136719 85.847656 312.464844 85.847656 313.03125 C 85.847656 313.894531 97.882812 319.996094 110.542969 325.546875 C 115.65625 327.789062 122.253906 330.773438 125.195312 332.160156 C 128.136719 333.546875 134.152344 335.957031 138.566406 337.535156 C 146.722656 340.449219 151.171875 340.992188 151.171875 339.066406 C 151.171875 338.863281 150.800781 338.570312 150.167969 338.210938 L 150.140625 338.183594 C 149.863281 337.957031 149.492188 337.761719 149.109375 337.652344 L 149.066406 337.636719 C 147.433594 336.875 144.917969 335.917969 141.613281 334.808594 C 130.722656 331.15625 112.773438 323.667969 97.585938 316.433594 C 90.933594 313.265625 87.875 311.984375 86.613281 312.089844 Z M 86.613281 312.089844 " fill-opacity="1" fill-rule="nonzero"></path></g></svg>