<svg xmlns="http://www.w3.org/2000/svg" xmlns:xlink="http://www.w3.org/1999/xlink" width="500" viewBox="0 0 375 374.999991" height="500" preserveAspectRatio="xMidYMid meet"><defs><clipPath id="5fabed86ec"><path d="M 37.5 0 L 336.75 0 L 336.75 374 L 37.5 374 Z M 37.5 0 " clip-rule="nonzero"></path></clipPath></defs><g clip-path="url(#5fabed86ec)"><path fill="#ffffff" d="M 333.523438 147.5 C 333.523438 147.5 326.871094 115.074219 326.101562 102.410156 C 325.332031 89.75 324.722656 50.261719 288.625 31.640625 C 252.527344 13.019531 246.011719 10.332031 246.011719 10.332031 C 246.011719 10.332031 240.546875 0.625 235.9375 -0.121094 C 231.332031 -0.867188 197.878906 4.433594 148.335938 -0.429688 C 146.28125 -0.632812 141.933594 2.5 138.125 8.019531 C 136.222656 10.777344 113.21875 17.363281 102.46875 22.578125 C 91.714844 27.789062 72.511719 37.410156 67.132812 41.878906 C 61.757812 46.347656 48.273438 61.117188 47.503906 87.1875 C 47.328125 93.222656 46.941406 99.015625 46.425781 104.417969 C 46.394531 104.371094 46.363281 104.328125 46.328125 104.277344 C 46.332031 104.574219 46.34375 104.863281 46.355469 105.152344 C 44.636719 122.722656 41.5625 135.984375 39.816406 139.371094 C 37.511719 143.839844 37.890625 152.105469 37.890625 152.105469 C 37.890625 152.105469 39.980469 158.753906 60.589844 165.625 C 74.375 170.21875 91.625 167.574219 95.46875 163.847656 L 95.613281 156.300781 L 94.933594 161.648438 C 91.140625 165.332031 77.515625 167.636719 63.855469 163.222656 C 55.472656 160.480469 47.757812 156.457031 40.714844 151.148438 C 40.714844 151.148438 40.402344 145.980469 42.019531 141.722656 C 43.144531 143.054688 44.367188 144.285156 45.691406 145.417969 C 48.332031 147.6875 52.132812 150.25 56.792969 151.378906 C 60.433594 152.261719 63.351562 153.816406 67.082031 155.175781 C 70.816406 156.535156 75.332031 157.667969 82.105469 157.667969 C 85.710938 157.640625 89.296875 157.382812 92.871094 156.886719 C 93.003906 156.871094 93.113281 156.808594 93.195312 156.699219 C 93.277344 156.589844 93.308594 156.472656 93.292969 156.335938 C 93.273438 156.203125 93.210938 156.09375 93.105469 156.011719 C 92.996094 155.929688 92.875 155.898438 92.742188 155.914062 C 89.214844 156.402344 85.667969 156.660156 82.105469 156.683594 C 75.4375 156.683594 71.074219 155.582031 67.421875 154.253906 C 63.765625 152.925781 60.808594 151.347656 57.027344 150.425781 C 52.578125 149.351562 48.894531 146.878906 46.332031 144.671875 C 45.28125 143.769531 44.292969 142.804688 43.367188 141.777344 C 43.027344 141.398438 42.765625 141.089844 42.59375 140.875 C 42.539062 140.808594 42.496094 140.753906 42.457031 140.707031 C 42.507812 140.605469 42.554688 140.503906 42.605469 140.402344 C 42.808594 139.992188 42.980469 139.574219 43.128906 139.140625 C 44.207031 140.390625 45.371094 141.550781 46.621094 142.625 C 49.261719 144.894531 53.0625 147.453125 57.722656 148.585938 C 61.363281 149.46875 64.285156 151.023438 68.015625 152.382812 C 71.746094 153.738281 76.261719 154.875 83.035156 154.875 C 86.640625 154.847656 90.230469 154.589844 93.800781 154.09375 C 93.921875 154.066406 94.023438 154 94.09375 153.894531 C 94.164062 153.789062 94.195312 153.675781 94.175781 153.550781 C 94.160156 153.421875 94.105469 153.320312 94.007812 153.238281 C 93.910156 153.15625 93.796875 153.117188 93.671875 153.121094 C 90.144531 153.609375 86.597656 153.867188 83.035156 153.894531 C 76.367188 153.890625 72.003906 152.789062 68.347656 151.460938 C 64.695312 150.132812 61.742188 148.554688 57.957031 147.632812 C 53.507812 146.554688 49.828125 144.085938 47.261719 141.878906 C 46.210938 140.976562 45.222656 140.011719 44.296875 138.984375 C 43.957031 138.601562 43.699219 138.292969 43.523438 138.082031 L 43.492188 138.042969 C 44.867188 133.511719 46.515625 124.445312 47.75 112.949219 C 48.875 116.097656 50.621094 118.851562 52.984375 121.210938 C 54.078125 122.335938 59.609375 127.101562 62.796875 134.21875 C 63.890625 136.65625 64.757812 139.945312 66.234375 143.539062 C 66.757812 144.816406 66.851562 139.957031 65.742188 137.160156 C 61.261719 125.878906 49.722656 117.289062 48.4375 105.738281 C 48.902344 100.210938 49.253906 94.28125 49.4375 88.140625 C 50.195312 62.378906 63.855469 47.660156 69.167969 43.242188 C 74.480469 38.824219 91.9375 29.996094 102.5625 24.839844 C 111.648438 20.4375 131.042969 14.957031 137.429688 11.617188 C 136.464844 12.59375 136.429688 15.78125 142.726562 25.777344 C 143.730469 27.25 144.925781 28.550781 146.3125 29.675781 C 143.34375 31.527344 139.664062 33.371094 136.011719 35.210938 C 132.203125 37.132812 128.429688 39.050781 125.53125 41 C 122.332031 43.152344 120.023438 45.664062 117.847656 48.28125 C 115.675781 50.898438 113.640625 53.625 110.984375 56.253906 C 107.898438 59.3125 105.054688 61.746094 102.546875 64.503906 C 99.765625 67.492188 97.636719 70.886719 96.160156 74.691406 C 93.558594 81.3125 92.921875 87.761719 90.273438 94.097656 C 89.109375 96.75 88.523438 99.519531 88.519531 102.414062 C 88.53125 103.703125 88.621094 104.988281 88.789062 106.265625 C 81.777344 91.164062 74.59375 77.003906 72.960938 46.917969 C 72.960938 46.917969 72.007812 47.425781 72.039062 52.667969 C 72.089844 60.78125 73.644531 76.789062 78.253906 89.3125 C 85.84375 109.921875 94.972656 124.941406 97.25 130.828125 C 98.527344 134.144531 103.742188 142.617188 110.644531 153.351562 C 112.851562 156.789062 109.726562 149.046875 109.007812 148.199219 C 103.460938 141.457031 99.34375 133.933594 96.65625 125.625 C 94.824219 120.074219 92.671875 114.648438 90.203125 109.347656 C 89.804688 107.054688 89.570312 104.742188 89.5 102.417969 C 89.503906 99.65625 90.066406 97.007812 91.179688 94.480469 C 92.425781 91.3125 93.429688 88.066406 94.1875 84.746094 C 94.941406 81.453125 95.902344 78.222656 97.074219 75.054688 C 98.503906 71.359375 100.570312 68.066406 103.269531 65.167969 C 105.722656 62.46875 108.554688 60.042969 111.675781 56.953125 C 114.390625 54.261719 116.449219 51.503906 118.601562 48.910156 C 120.753906 46.320312 122.992188 43.894531 126.078125 41.816406 C 128.898438 39.917969 132.644531 38.011719 136.453125 36.089844 C 140.210938 34.195312 144.027344 32.289062 147.109375 30.339844 C 154.234375 36.085938 166.769531 41.890625 173.867188 43.824219 C 179.707031 45.417969 179.882812 44.003906 179.882812 44.003906 C 140.246094 36.21875 139.007812 11.265625 139.007812 11.265625 C 138.695312 11.195312 138.386719 11.191406 138.074219 11.261719 C 138.625 10.996094 139.082031 10.613281 139.445312 10.121094 C 140.140625 8.769531 142.109375 6.800781 144.046875 5.066406 C 146.234375 14.484375 159.785156 34.261719 192.449219 34.625 C 228.808594 35.027344 235.703125 16.542969 237.394531 8.082031 C 238.28125 3.65625 236.511719 6.664062 236.511719 6.664062 C 236.511719 6.664062 236.3125 23.671875 213.007812 29.9375 C 187.671875 36.75 169.730469 28.59375 157.589844 19.761719 C 147.800781 12.640625 146.546875 5.503906 146.429688 3.003906 C 147.660156 1.976562 148.554688 1.285156 148.554688 1.285156 C 197.875 7.503906 230.566406 0.855469 235.117188 1.589844 C 238.953125 2.210938 243.34375 8.757812 244.628906 10.804688 C 236.800781 41.175781 194.398438 42.941406 194.398438 42.941406 C 191.742188 43.296875 192.742188 44.144531 194.574219 44.003906 C 213.570312 42.53125 226.234375 35.675781 234.367188 28.738281 C 244.503906 38.460938 257.589844 45.671875 267.742188 55.703125 C 277.367188 65.195312 283.722656 80.449219 284.84375 93.761719 C 285.082031 96.566406 285.28125 99.699219 285.28125 102.988281 C 285.28125 103.644531 285.269531 104.3125 285.253906 104.980469 C 283.765625 113.617188 281.777344 122.136719 279.292969 130.539062 C 277.824219 135.164062 268.457031 146.394531 263.417969 152.214844 C 261.507812 154.421875 257.113281 163.621094 257.113281 163.621094 C 257.113281 163.621094 262.21875 154.988281 265.175781 152.691406 C 267.726562 150.691406 270.046875 148.453125 272.128906 145.96875 C 272.128906 148.136719 272.351562 151.734375 271.304688 155.128906 C 269.128906 162.171875 269.148438 164.882812 269.023438 165.695312 C 267.429688 176.3125 259.652344 184 256.746094 195.988281 C 255.429688 201.402344 255.261719 204.011719 255.414062 206.59375 C 255.527344 208.464844 255.023438 213.105469 257.503906 204.085938 C 260.175781 194.355469 259.484375 190.796875 264.039062 181.808594 C 266.613281 176.722656 270.285156 172.109375 271.816406 166.773438 C 271.914062 176.476562 272.5625 202.179688 272.5625 210.332031 C 272.5625 212.597656 272.714844 215.742188 272.988281 219.496094 C 271.863281 232.621094 266.292969 248.414062 264.90625 251.683594 C 260.339844 262.445312 256.636719 277.515625 256.636719 285.855469 C 256.636719 292.949219 252.914062 302.550781 251.976562 314.074219 C 261.054688 295.671875 257.765625 278.601562 263.371094 263.253906 C 265.25 258.097656 267.628906 255.238281 270.359375 245.863281 C 272.40625 236.957031 273.820312 236.507812 274.699219 237.226562 C 275.570312 244.886719 276.664062 253.179688 277.875 261.121094 C 280.914062 280.992188 279.199219 296.824219 280.714844 309.339844 C 281.566406 316.347656 284.605469 328.265625 285.609375 338.359375 C 285.667969 338.945312 286.34375 340.980469 286.433594 341.539062 C 288.128906 352.132812 285.589844 353.191406 285.589844 353.191406 C 266.613281 362.757812 242.210938 371.34375 179.972656 370.058594 C 108.632812 368.585938 95.730469 346.507812 95.730469 346.507812 C 95.730469 346.507812 92.695312 342.089844 94.214844 334.726562 C 95.730469 327.367188 99.527344 290.5625 100.285156 286.148438 C 100.65625 283.988281 100.664062 280.589844 100.667969 276.996094 C 101.917969 283.9375 106.007812 288.230469 107.726562 295.730469 C 109.707031 304.378906 111.429688 313.582031 114.746094 321.992188 C 115.078125 307.578125 108.984375 287.5 100.667969 274.609375 C 100.632812 271.824219 100.757812 269.046875 101.046875 266.273438 C 101.804688 260.386719 102.5625 247.875 101.804688 238.304688 C 101.121094 229.6875 101.054688 201.371094 100.492188 189.375 C 103.917969 208.542969 109.050781 233.8125 111.308594 241.941406 C 114.851562 254.699219 128.007812 286.105469 119.40625 260.097656 C 110.804688 234.089844 109.285156 223.292969 105.238281 203.171875 C 102.578125 189.945312 101.230469 181.808594 99.898438 173.601562 C 99.894531 171.851562 99.769531 170.109375 99.527344 168.378906 C 99.128906 165.679688 98.21875 161.375 97.4375 157.882812 C 97.261719 155.734375 97.019531 152.324219 96.789062 148.957031 L 96.636719 142.808594 C 96.621094 141.824219 96.546875 140.84375 96.414062 139.867188 C 95.433594 125.636719 85.730469 116.636719 76.621094 100.445312 C 71.042969 90.519531 69.035156 85.183594 67.3125 80.125 C 66.226562 76.929688 66.085938 78.636719 67.460938 85.394531 C 69.035156 93.105469 72.949219 104.101562 78.503906 109.4375 C 85.367188 116.039062 90.027344 124.339844 92.871094 130.601562 C 93.988281 133.0625 93.878906 134.066406 92.742188 132.761719 C 87.695312 126.96875 78.722656 123.433594 71.84375 118.765625 C 66.414062 115.078125 61.714844 107.441406 58.523438 101.148438 C 55.765625 95.710938 56.121094 99.621094 58.375 104.539062 C 62.574219 113.6875 72.070312 122.953125 80.957031 127.105469 C 87.925781 130.359375 92.480469 132.222656 95.082031 142.757812 L 95.988281 153.351562 L 95.765625 155.117188 C 95.902344 155.84375 96.152344 157.167969 96.453125 158.78125 L 97.144531 166.855469 C 97.144531 168.640625 97.769531 173.222656 98.765625 179.324219 C 98.773438 181.824219 98.828125 184.714844 99.144531 188.402344 C 99.910156 197.339844 98.566406 230.660156 99.335938 240.339844 C 100.101562 250.023438 98.636719 263.949219 97.871094 269.910156 C 97.105469 275.867188 98.636719 280.164062 97.871094 284.628906 C 97.277344 288.082031 94.238281 312.378906 92.472656 326.34375 C 91.949219 330.472656 90.859375 335.4375 90.507812 337.140625 C 88.972656 344.585938 95.417969 350.878906 95.417969 350.878906 C 95.417969 350.878906 107.804688 372.210938 180 373.703125 C 242.980469 375 268.664062 364.929688 287.863281 355.246094 C 287.863281 355.246094 290.339844 354.742188 288.625 344.023438 C 288.535156 343.457031 287.734375 339.667969 287.675781 339.078125 C 286.660156 328.859375 284.160156 317.828125 283.296875 310.730469 C 281.761719 298.066406 283.136719 281.378906 280.0625 261.265625 C 276.992188 241.152344 275.117188 219.980469 275.117188 211.042969 C 275.117188 202.105469 274.167969 173.402344 274.167969 165.957031 C 274.167969 158.507812 276.132812 149.292969 276.132812 149.292969 C 276.132812 149.292969 276.046875 168.300781 278.355469 171.28125 C 280.660156 174.261719 293.003906 178.132812 312.597656 172.996094 C 330.414062 168.324219 335.222656 159.992188 336.757812 157.015625 Z M 275.96875 147.550781 C 275.847656 146.652344 275.660156 145.410156 275.421875 144.15625 C 275.664062 142.671875 276.058594 141.226562 276.605469 139.820312 C 279.792969 137.773438 283.429688 136.515625 285.65625 132.910156 C 288.199219 128.792969 289.121094 124.289062 290.53125 119.832031 C 292.679688 113.039062 295.050781 105.875 299.75 97.921875 C 302.664062 92.988281 296.738281 100.332031 291.066406 112.871094 C 289.464844 116.417969 289.035156 121.671875 287.460938 125.269531 C 283.246094 134.90625 278.722656 136.371094 278.722656 136.371094 C 278.539062 136.601562 283.359375 127.578125 284.359375 121.707031 C 287.371094 104.035156 286.484375 99.378906 289.523438 87.601562 C 290.941406 82.09375 294.785156 76.085938 295.777344 69.613281 C 296.90625 62.238281 286.332031 89.636719 286.332031 94.714844 C 286.332031 95.785156 286.265625 97 286.144531 98.3125 C 286.0625 96.695312 285.949219 95.140625 285.828125 93.679688 C 284.675781 80.128906 278.269531 64.722656 268.4375 55.007812 C 258.167969 44.878906 245.105469 37.671875 235.113281 28.09375 C 243.59375 20.589844 246.84375 13.1875 247.113281 12.554688 C 250.945312 14.609375 261.128906 19.992188 286.226562 32.9375 C 321.898438 51.339844 322.65625 91.085938 323.414062 103.601562 C 324.074219 114.476562 329.320312 140.367188 330.683594 146.953125 L 330.347656 146.582031 L 330.3125 146.613281 C 327.542969 149.015625 324.597656 151.175781 321.480469 153.097656 C 316.339844 156.308594 309.382812 159.773438 301.75 161.183594 C 297.886719 161.921875 293.988281 162.296875 290.054688 162.320312 C 286.941406 162.347656 283.863281 162.039062 280.820312 161.390625 C 279.789062 161.160156 279.015625 160.929688 278.503906 160.761719 C 278.304688 160.695312 278.160156 160.640625 278.035156 160.59375 C 277.824219 155.746094 276.628906 150.261719 275.96875 147.550781 Z M 308.234375 170.582031 C 290.777344 175.734375 281.425781 171.203125 279.148438 168.257812 C 278.601562 167.550781 278.550781 166.585938 278.40625 164.921875 C 279.953125 165.449219 283.984375 166.570312 290.382812 166.570312 C 294.375 166.550781 298.332031 166.167969 302.253906 165.421875 C 310.316406 163.929688 317.574219 160.222656 322.824219 156.886719 C 325.828125 155.007812 328.664062 152.90625 331.335938 150.578125 L 330.675781 149.855469 L 330.640625 149.886719 C 327.871094 152.285156 324.925781 154.449219 321.804688 156.371094 C 316.664062 159.582031 309.707031 163.046875 302.074219 164.457031 C 298.210938 165.191406 294.3125 165.570312 290.378906 165.59375 C 287.265625 165.621094 284.191406 165.3125 281.144531 164.664062 C 280.363281 164.492188 279.589844 164.28125 278.828125 164.035156 C 278.597656 163.957031 278.429688 163.894531 278.304688 163.847656 C 278.246094 163.296875 278.171875 162.683594 278.066406 161.996094 C 278.066406 161.882812 278.066406 161.765625 278.0625 161.648438 C 279.59375 162.175781 283.628906 163.304688 290.054688 163.300781 C 294.046875 163.28125 298.003906 162.894531 301.925781 162.148438 C 309.984375 160.65625 317.242188 156.949219 322.496094 153.617188 C 325.414062 151.78125 328.179688 149.742188 330.792969 147.492188 C 330.925781 148.140625 331.003906 148.496094 331.003906 148.496094 L 334.039062 155.855469 C 332.519531 158.804688 325.691406 165.429688 308.238281 170.582031 Z M 283.726562 340.292969 L 284.125 340.125 L 284.507812 341.027344 C 284.5 341.03125 275.644531 344.796875 263.308594 348.75 C 250.972656 352.703125 235.164062 356.84375 221.214844 357.589844 C 210.417969 358.164062 201.386719 358.765625 191.257812 358.765625 C 179.078125 358.765625 165.316406 357.898438 144.996094 355.082031 C 124.253906 352.207031 111.953125 347.089844 104.820312 342.660156 C 97.6875 338.230469 95.730469 334.488281 95.695312 334.414062 L 96.464844 334.015625 C 96.496094 333.996094 96.53125 333.980469 96.566406 333.964844 L 96.582031 333.988281 C 96.59375 334.011719 96.617188 334.050781 96.644531 334.101562 C 96.707031 334.199219 96.800781 334.347656 96.9375 334.542969 C 97.359375 335.140625 97.820312 335.703125 98.320312 336.234375 C 100.410156 338.410156 102.75 340.273438 105.34375 341.820312 C 112.332031 346.160156 124.5 351.246094 145.132812 354.105469 C 165.421875 356.914062 179.128906 357.777344 191.261719 357.777344 C 201.351562 357.777344 210.359375 357.179688 221.164062 356.601562 C 234.101562 355.910156 248.761719 352.25 260.667969 348.546875 C 272.578125 344.847656 281.738281 341.117188 283.726562 340.292969 Z M 284.507812 337.429688 C 284.5 337.433594 275.644531 341.199219 263.308594 345.152344 C 250.972656 349.105469 235.164062 353.246094 221.214844 353.992188 C 210.417969 354.570312 201.386719 355.167969 191.257812 355.167969 C 179.078125 355.167969 165.316406 354.300781 144.996094 351.484375 C 124.253906 348.613281 111.953125 343.492188 104.820312 339.0625 C 97.6875 334.632812 95.730469 330.894531 95.695312 330.816406 L 96.476562 330.414062 C 96.507812 330.398438 96.535156 330.382812 96.566406 330.371094 L 96.582031 330.398438 C 96.59375 330.417969 96.617188 330.457031 96.644531 330.507812 C 96.707031 330.605469 96.800781 330.757812 96.9375 330.957031 C 97.359375 331.546875 97.820312 332.109375 98.320312 332.640625 C 100.410156 334.820312 102.75 336.679688 105.34375 338.230469 C 112.332031 342.570312 124.5 347.652344 145.132812 350.511719 C 165.421875 353.324219 179.128906 354.1875 191.261719 354.1875 C 201.351562 354.1875 210.359375 353.589844 221.164062 353.011719 C 234.101562 352.320312 248.761719 348.65625 260.667969 344.957031 C 272.578125 341.253906 281.742188 337.519531 283.726562 336.695312 L 284.128906 336.527344 Z M 224.304688 14.453125 C 185.195312 23.125 160.070312 14.804688 160.070312 14.804688 C 157.0625 14.277344 154.9375 11.796875 158.300781 12.859375 C 161.660156 13.921875 188.773438 20.578125 213.15625 15.515625 C 226.78125 12.683594 224.304688 14.453125 224.304688 14.453125 Z M 224.304688 14.453125 " fill-opacity="1" fill-rule="nonzero"></path></g></svg>