<svg xmlns="http://www.w3.org/2000/svg" xmlns:xlink="http://www.w3.org/1999/xlink" width="500" viewBox="0 0 375 374.999991" height="500" preserveAspectRatio="xMidYMid meet"><defs><clipPath id="a8583823e0"><path d="M 0.148438 0 L 374.972656 0 L 374.972656 374.964844 L 0.148438 374.964844 Z M 0.148438 0 " clip-rule="nonzero"></path></clipPath></defs><path fill="#ffffff" d="M 264.9375 324.371094 C 264.9375 326.019531 263.601562 327.347656 261.960938 327.347656 L 113.152344 327.347656 C 111.511719 327.347656 110.175781 326.019531 110.175781 324.371094 L 110.175781 309.488281 C 110.175781 307.894531 110.722656 306.734375 111.800781 306.035156 C 130.601562 293.769531 140.855469 261.253906 142.878906 247.417969 C 143.121094 245.734375 144.644531 244.011719 145.890625 244.011719 L 229.222656 244.011719 C 230.464844 244.011719 231.988281 245.734375 232.234375 247.417969 C 234.257812 261.253906 244.511719 293.769531 263.308594 306.035156 C 264.390625 306.734375 264.9375 307.894531 264.9375 309.488281 Z M 266.5625 301.046875 C 249.636719 290.003906 239.941406 259.011719 238.117188 246.558594 C 237.523438 242.476562 233.953125 238.058594 229.222656 238.058594 L 145.890625 238.058594 C 141.15625 238.058594 137.589844 242.476562 136.996094 246.558594 C 135.171875 259.011719 125.472656 290.003906 108.546875 301.046875 C 105.757812 302.875 104.222656 305.863281 104.222656 309.488281 L 104.222656 324.371094 C 104.222656 329.300781 108.234375 333.296875 113.152344 333.296875 L 261.960938 333.296875 C 266.878906 333.296875 270.890625 329.300781 270.890625 324.371094 L 270.890625 309.488281 C 270.890625 305.863281 269.355469 302.875 266.5625 301.046875 " fill-opacity="1" fill-rule="nonzero"></path><g clip-path="url(#a8583823e0)"><path fill="#ffffff" d="M 362.882812 368.058594 C 362.382812 368.652344 361.359375 369.011719 360.175781 369.011719 L 333.390625 369.011719 C 332.203125 369.011719 330.65625 367.234375 330.355469 365.457031 L 328.085938 354.132812 L 363.152344 354.132812 L 363.152344 366.035156 C 363.152344 366.210938 363.164062 366.375 363.199219 366.546875 C 363.335938 367.398438 363.082031 367.816406 362.882812 368.058594 Z M 306.441406 268.171875 C 305.660156 240.082031 303.382812 212.625 300.59375 198.789062 C 291.386719 152.507812 292.898438 104.839844 305.046875 57.011719 C 318.984375 75.519531 369.089844 155.285156 369.011719 345.074219 C 369.011719 346.785156 367.671875 348.179688 366.023438 348.179688 L 324.460938 348.179688 C 323.578125 348.179688 321.996094 346.46875 321.355469 344.355469 C 317.460938 331.367188 311.007812 294.804688 306.441406 268.171875 Z M 297.722656 338.726562 C 297.164062 341.855469 294.617188 345.203125 291.722656 345.203125 L 83.390625 345.203125 C 80.472656 345.203125 77.9375 341.867188 77.390625 338.738281 C 74.648438 322.953125 73.867188 296.109375 74.460938 269.578125 C 74.460938 269.554688 74.472656 269.542969 74.472656 269.519531 C 74.484375 269.460938 74.460938 269.402344 74.472656 269.34375 C 75.113281 241.445312 77.285156 213.914062 80.34375 200.019531 C 90.386719 155.273438 88.585938 105.539062 74.984375 52.1875 L 93.65625 43.257812 C 95.503906 48.910156 99.339844 54.851562 105.546875 58.988281 C 116.230469 66.117188 133.113281 74.230469 157.597656 78.066406 C 157.1875 81.742188 156.199219 84.019531 155.074219 86.554688 C 153.5625 89.960938 151.839844 93.820312 151.839844 101.144531 C 151.839844 108.480469 153.5625 112.339844 155.074219 115.757812 C 156.539062 119.035156 157.792969 121.871094 157.792969 127.941406 C 157.792969 134.011719 156.539062 136.847656 155.074219 140.125 C 153.5625 143.53125 151.839844 147.402344 151.839844 154.726562 C 151.839844 156.378906 153.179688 157.703125 154.816406 157.703125 C 156.457031 157.703125 157.792969 156.378906 157.792969 154.726562 C 157.792969 148.671875 159.050781 145.832031 160.515625 142.542969 C 162.027344 139.136719 163.746094 135.265625 163.746094 127.941406 C 163.746094 120.605469 162.027344 116.746094 160.515625 113.339844 C 159.050781 110.050781 157.792969 107.210938 157.792969 101.144531 C 157.792969 95.085938 159.050781 92.25 160.515625 88.972656 C 161.675781 86.355469 162.957031 83.414062 163.492188 78.878906 C 170.871094 79.789062 178.847656 80.320312 187.554688 80.320312 C 195.101562 80.320312 202.121094 79.925781 208.679688 79.242188 C 209.238281 83.578125 210.492188 86.425781 211.621094 88.972656 C 213.085938 92.25 214.339844 95.085938 214.339844 101.144531 C 214.339844 107.210938 213.085938 110.050781 211.621094 113.339844 C 210.109375 116.746094 208.390625 120.605469 208.390625 127.941406 C 208.390625 135.265625 210.109375 139.136719 211.621094 142.542969 C 213.085938 145.832031 214.339844 148.671875 214.339844 154.726562 C 214.339844 156.378906 215.679688 157.703125 217.316406 157.703125 C 218.957031 157.703125 220.292969 156.378906 220.292969 154.726562 C 220.292969 147.402344 218.574219 143.53125 217.0625 140.125 C 215.597656 136.847656 214.339844 134.011719 214.339844 127.941406 C 214.339844 121.871094 215.597656 119.035156 217.0625 115.757812 C 218.574219 112.339844 220.292969 108.480469 220.292969 101.144531 C 220.292969 93.820312 218.574219 89.960938 217.0625 86.554688 C 215.96875 84.101562 215.015625 81.9375 214.585938 78.507812 C 240.664062 74.882812 258.449219 66.40625 269.5625 58.988281 C 275.773438 54.851562 279.609375 48.910156 281.457031 43.257812 L 300.117188 52.1875 C 286.957031 102.003906 285.152344 151.703125 294.757812 199.960938 C 300.035156 226.144531 303.546875 306.128906 297.722656 338.726562 Z M 282.792969 369.011719 L 92.316406 369.011719 C 91.015625 369.011719 89.527344 367.363281 89.304688 365.546875 L 86.898438 351.15625 L 288.210938 351.15625 L 285.792969 365.675781 C 285.585938 367.363281 284.097656 369.011719 282.792969 369.011719 Z M 53.753906 344.355469 C 53.117188 346.46875 51.535156 348.179688 50.652344 348.179688 L 9.089844 348.179688 C 7.4375 348.179688 6.101562 346.785156 6.101562 345.074219 C 6.019531 155.820312 56.035156 75.765625 70.03125 57.082031 C 82.621094 108.210938 84.15625 155.84375 74.53125 198.730469 C 71.4375 212.785156 69.242188 240.523438 68.566406 268.730469 C 64.054688 295.050781 57.636719 331.390625 53.753906 344.355469 Z M 41.722656 369.011719 L 15.019531 369.011719 C 13.832031 369.011719 12.820312 368.652344 12.308594 368.058594 C 12.113281 367.816406 11.855469 367.398438 12.007812 366.546875 C 12.03125 366.375 12.054688 366.199219 12.042969 366.023438 L 11.984375 354.132812 L 47.023438 354.132812 L 44.734375 365.546875 C 44.453125 367.234375 42.910156 369.011719 41.722656 369.011719 Z M 140.226562 9.566406 C 140.738281 17.9375 143.203125 25.972656 146.691406 33.425781 C 146.703125 33.445312 146.714844 33.46875 146.726562 33.492188 C 155.304688 51.792969 170.257812 66.59375 178.988281 74.195312 C 144.097656 72.753906 121.742188 62.628906 108.847656 54.035156 C 100.480469 48.457031 98.269531 39.597656 98.269531 35.679688 C 98.269531 23.542969 113.140625 14.324219 140.226562 9.566406 Z M 228.945312 8.636719 C 228.59375 15.660156 226.710938 22.460938 223.96875 28.796875 C 213.144531 27.542969 200.949219 26.84375 187.542969 26.773438 C 174.152344 26.84375 161.957031 27.542969 151.121094 28.796875 C 148.355469 22.402344 146.503906 15.613281 146.167969 8.636719 C 158.097656 6.929688 171.988281 6.023438 187.542969 5.941406 C 203.121094 6.023438 217.015625 6.929688 228.945312 8.636719 Z M 187.554688 73.589844 C 181.976562 69.125 164.269531 54.046875 153.875 34.492188 C 163.980469 33.402344 175.242188 32.785156 187.542969 32.726562 C 199.867188 32.785156 211.132812 33.402344 221.234375 34.492188 C 217.246094 42.003906 212.308594 48.699219 207.761719 54.023438 C 199.4375 63.789062 191.101562 70.777344 187.554688 73.589844 Z M 276.839844 35.679688 C 276.839844 39.597656 274.632812 48.457031 266.261719 54.035156 C 253.378906 62.628906 231.035156 72.742188 196.160156 74.195312 C 208.480469 63.5 233.140625 38.632812 234.882812 9.566406 C 261.984375 14.324219 276.839844 23.542969 276.839844 35.679688 Z M 374.960938 345.074219 C 375.054688 123.347656 308.601562 51.457031 305.777344 48.503906 C 305.777344 48.503906 305.765625 48.503906 305.765625 48.503906 C 305.523438 48.246094 305.242188 48.039062 304.90625 47.875 L 282.6875 37.25 C 282.722656 36.726562 282.792969 36.179688 282.792969 35.679688 C 282.792969 14.21875 251.253906 6.070312 232.464844 3.128906 C 219.6875 1.140625 204.585938 0.0703125 187.542969 -0.0117188 C 170.523438 0.0703125 155.421875 1.140625 142.644531 3.128906 C 123.859375 6.070312 92.316406 14.207031 92.316406 35.679688 C 92.316406 36.179688 92.386719 36.726562 92.421875 37.25 L 70.195312 47.875 C 69.867188 48.039062 69.589844 48.246094 69.34375 48.503906 C 69.34375 48.503906 69.332031 48.503906 69.332031 48.503906 C 66.507812 51.457031 0.0546875 123.347656 0.148438 345.074219 C 0.148438 348.980469 2.613281 352.285156 6.019531 353.550781 L 6.089844 365.828125 C 5.777344 368.082031 6.367188 370.234375 7.765625 371.882812 C 9.414062 373.847656 12.054688 374.964844 15.019531 374.964844 L 41.722656 374.964844 C 46.347656 374.964844 49.929688 370.582031 50.59375 366.628906 L 53.195312 353.609375 C 56.277344 352.386719 58.523438 349.144531 59.453125 346.0625 C 61.613281 338.890625 64.519531 325.160156 68.578125 303 C 68.972656 317.511719 69.914062 330.507812 71.53125 339.761719 C 72.355469 344.550781 75.925781 349.445312 80.808594 350.785156 L 83.414062 366.410156 C 83.925781 370.523438 87.480469 374.964844 92.316406 374.964844 L 282.792969 374.964844 C 287.628906 374.964844 291.1875 370.523438 291.6875 366.523438 L 294.304688 350.796875 C 299.289062 349.480469 302.730469 344.515625 303.582031 339.773438 C 305.253906 330.402344 306.195312 317.476562 306.558594 303.117188 C 310.601562 325.21875 313.507812 338.902344 315.660156 346.0625 C 316.578125 349.144531 318.832031 352.386719 321.914062 353.609375 L 324.496094 366.523438 C 325.179688 370.582031 328.761719 374.964844 333.390625 374.964844 L 360.175781 374.964844 C 363.140625 374.964844 365.789062 373.847656 367.441406 371.882812 C 368.835938 370.222656 369.417969 368.082031 369.101562 365.804688 L 369.101562 353.550781 C 372.507812 352.273438 374.960938 348.96875 374.960938 345.074219 " fill-opacity="1" fill-rule="nonzero"></path></g></svg>