<svg xmlns="http://www.w3.org/2000/svg" xmlns:xlink="http://www.w3.org/1999/xlink" width="500" viewBox="0 0 375 374.999991" height="500" preserveAspectRatio="xMidYMid meet"><defs><clipPath id="56f58e4c87"><path d="M 2 16 L 375 16 L 375 359.589844 L 2 359.589844 Z M 2 16 " clip-rule="nonzero"></path></clipPath></defs><g clip-path="url(#56f58e4c87)"><path fill="#ffffff" d="M 297.578125 156.589844 C 297.898438 171.566406 298.054688 186.539062 298.054688 201.515625 C 298.054688 204.382812 298.054688 207.25 298.214844 210.117188 C 298.375 223.496094 298.375 236.71875 298.695312 250.101562 C 298.851562 263.003906 299.011719 275.910156 299.332031 288.8125 C 299.648438 304.421875 300.285156 320.035156 301.242188 335.648438 C 301.242188 336.285156 301.402344 337.082031 301.71875 337.71875 C 302.359375 339.46875 302.996094 341.699219 303.792969 344.566406 C 304.269531 346.320312 304.429688 347.753906 303.472656 349.347656 C 302.199219 351.578125 300.128906 353.011719 297.417969 353.488281 C 292.957031 354.285156 288.65625 354.921875 284.195312 355.242188 C 249.945312 358.425781 215.378906 359.542969 180.96875 359.382812 C 173.960938 359.382812 160.894531 359.066406 142.097656 358.585938 C 127.125 358.109375 112.308594 357.3125 97.492188 356.039062 C 92.238281 355.558594 87.140625 354.921875 81.882812 353.96875 C 77.738281 353.328125 72.164062 351.257812 73.597656 345.84375 C 74.234375 343.132812 75.03125 340.425781 75.828125 337.878906 C 75.988281 337.242188 76.148438 336.445312 76.148438 335.648438 C 76.625 324.175781 77.101562 312.546875 77.261719 301.078125 C 78.21875 252.648438 78.855469 204.222656 79.96875 155.953125 C 79.96875 155.792969 79.96875 155.792969 79.8125 155.953125 C 75.191406 161.210938 70.410156 166.308594 65.3125 171.246094 C 62.765625 173.636719 60.375 175.867188 58.144531 177.777344 C 56.550781 179.050781 54.640625 179.6875 52.570312 179.53125 C 49.703125 179.210938 48.109375 177.617188 45.878906 175.230469 C 28.039062 156.589844 14.816406 142.570312 6.210938 133.492188 C 2.390625 129.347656 0 123.773438 4.621094 118.996094 C 15.132812 107.84375 22.941406 99.402344 28.039062 93.824219 C 37.59375 83.152344 46.355469 73.433594 55.914062 64.035156 C 78.21875 42.210938 105.617188 27.394531 136.363281 21.820312 C 137.160156 21.660156 137.796875 20.703125 138.433594 20.226562 C 143.214844 16.402344 150.382812 15.449219 155.957031 17.199219 C 159.78125 18.316406 165.515625 20.703125 169.816406 21.5 C 180.648438 23.730469 193.074219 23.09375 204.066406 20.863281 C 207.570312 20.066406 212.03125 19.113281 217.609375 17.835938 C 221.589844 16.882812 224.457031 16.402344 226.050781 16.402344 C 229.714844 16.402344 236.246094 18.15625 238.476562 21.5 C 238.476562 21.660156 238.636719 21.660156 238.796875 21.660156 C 262.214844 25.960938 284.675781 35.359375 303.792969 49.699219 C 316.855469 59.574219 328.003906 71.203125 338.996094 83.152344 C 349.988281 95.257812 360.980469 107.207031 372.132812 119.152344 C 374.679688 121.863281 375 124.730469 373.40625 128.074219 C 372.609375 129.667969 371.496094 131.261719 370.0625 132.695312 C 356.519531 147.511719 342.980469 162.324219 329.121094 176.820312 C 327.527344 178.414062 325.773438 179.371094 323.703125 179.371094 C 320.359375 179.53125 317.652344 176.820312 315.261719 174.433594 C 309.367188 168.539062 303.472656 162.484375 297.738281 156.429688 C 297.738281 156.273438 297.578125 156.273438 297.578125 156.589844 Z M 184.792969 340.585938 C 185.429688 340.585938 186.066406 340.585938 186.703125 340.585938 C 201.835938 341.382812 216.332031 342.339844 232.265625 342.179688 C 239.433594 342.179688 246.761719 341.859375 253.929688 341.542969 C 267.949219 340.746094 281.96875 339.789062 295.984375 338.675781 L 283.402344 299.324219 L 295.03125 324.175781 C 295.1875 324.496094 295.1875 324.496094 295.1875 324.175781 C 293.753906 303.308594 293.597656 282.121094 293.277344 261.09375 C 292.957031 224.773438 292.480469 188.609375 292.164062 152.289062 C 292.164062 151.015625 292.480469 149.898438 292.320312 148.625 C 292.003906 140.980469 291.683594 133.492188 291.367188 125.84375 C 290.570312 111.347656 290.25 96.375 292.003906 81.878906 C 292.003906 81.558594 292.003906 81.238281 292.003906 81.082031 C 292.003906 80.761719 291.84375 80.761719 291.683594 81.082031 C 287.703125 88.089844 285.472656 95.738281 284.992188 103.859375 C 284.355469 113.417969 284.835938 123.933594 285.472656 133.171875 C 286.425781 146.871094 287.222656 160.574219 288.019531 174.273438 C 288.65625 185.902344 288.976562 197.53125 289.453125 209.320312 C 289.453125 210.914062 289.453125 212.347656 289.453125 213.941406 C 287.859375 190.363281 286.269531 166.625 284.515625 143.050781 C 283.71875 131.738281 282.921875 120.429688 283.082031 108.957031 C 283.242188 97.648438 285.949219 86.816406 292.320312 77.574219 C 292.640625 77.097656 293.117188 76.300781 293.117188 75.824219 C 294.710938 68.175781 298.214844 62.125 305.226562 57.980469 C 305.382812 57.824219 305.382812 57.824219 305.226562 57.664062 C 304.90625 57.34375 304.589844 57.027344 304.269531 56.707031 C 285.472656 41.574219 263.328125 31.695312 239.59375 27.078125 C 239.433594 27.078125 239.273438 27.078125 239.273438 27.234375 C 238 43.644531 229.714844 61.007812 214.421875 68.335938 C 206.617188 72 198.332031 74.550781 189.570312 75.824219 C 184.3125 76.621094 179.375 76.621094 174.753906 76.140625 C 154.207031 73.59375 141.78125 53.519531 137.480469 35.203125 C 136.839844 32.492188 136.523438 29.785156 136.363281 27.078125 C 136.363281 26.917969 136.203125 26.917969 136.203125 26.917969 C 114.378906 31.058594 94.785156 39.660156 77.101562 52.882812 C 75.03125 54.476562 72.960938 55.910156 70.890625 57.503906 C 70.730469 57.664062 70.730469 57.664062 70.890625 57.824219 C 78.21875 61.964844 81.882812 67.859375 84.589844 75.664062 C 84.75 76.140625 84.910156 76.460938 84.910156 76.621094 C 90.324219 84.105469 93.191406 92.550781 93.671875 101.949219 C 93.988281 108.480469 93.828125 115.011719 93.191406 121.382812 C 92.078125 133.171875 90.960938 144.800781 89.847656 156.589844 C 88.730469 167.742188 88.09375 179.050781 87.296875 189.882812 C 87.140625 191.796875 86.980469 191.796875 86.980469 189.882812 C 86.980469 189.40625 86.980469 188.449219 86.980469 187.015625 C 87.457031 172.679688 88.253906 158.34375 89.6875 144.003906 C 90.960938 131.101562 92.394531 118.039062 92.238281 105.136719 C 92.078125 96.53125 90.164062 87.769531 85.546875 80.441406 C 85.386719 80.125 85.226562 80.125 85.226562 80.601562 C 86.183594 86.335938 86.820312 92.074219 86.820312 97.964844 C 87.140625 113.738281 86.023438 129.347656 85.226562 145.121094 C 85.066406 147.988281 85.226562 151.332031 85.066406 154.519531 C 84.910156 157.863281 84.75 160.253906 84.75 161.527344 C 84.589844 179.050781 84.273438 196.574219 83.953125 214.097656 C 83.632812 232.417969 83.476562 252.96875 83.15625 268.898438 C 82.996094 276.863281 82.519531 291.519531 81.882812 312.707031 C 81.882812 314.460938 81.722656 318.125 81.402344 323.699219 C 81.402344 324.335938 81.246094 324.972656 81.085938 325.769531 C 81.085938 326.25 81.085938 326.25 81.246094 325.769531 C 81.722656 324.65625 82.359375 323.222656 83.15625 321.628906 C 87.140625 312.070312 90.324219 304.742188 92.554688 299.324219 C 92.554688 299.324219 92.554688 299.324219 92.714844 299.324219 C 92.714844 299.324219 92.714844 299.324219 92.714844 299.484375 L 80.925781 338.832031 C 80.925781 338.992188 80.925781 338.992188 81.085938 339.152344 C 82.679688 339.3125 84.273438 339.3125 85.863281 339.46875 C 97.335938 340.746094 108.804688 341.699219 120.273438 342.65625 C 134.453125 343.773438 148.628906 343.613281 162.808594 342.339844 C 171.730469 341.542969 178.578125 341.0625 183.359375 340.902344 C 183.515625 340.902344 183.835938 340.902344 184.3125 341.0625 C 176.347656 341.542969 168.542969 342.496094 160.578125 343.453125 C 151.496094 344.566406 142.417969 345.046875 133.175781 344.566406 C 120.113281 344.089844 107.050781 343.132812 93.988281 341.859375 C 89.527344 341.382812 85.226562 340.902344 80.765625 340.265625 C 80.609375 340.265625 80.449219 340.265625 80.449219 340.425781 L 79.171875 344.726562 C 79.171875 344.886719 79.171875 344.886719 79.332031 344.886719 C 94.625 346.640625 109.917969 347.914062 125.371094 348.871094 C 133.972656 349.347656 142.734375 349.507812 151.019531 348.710938 C 154.363281 348.390625 158.824219 347.753906 164.242188 347.117188 C 175.710938 345.523438 187.023438 345.523438 198.492188 346.640625 C 212.511719 347.914062 225.414062 348.710938 237.839844 348.390625 C 256.636719 347.914062 276.550781 346.640625 297.578125 344.726562 L 296.304688 341.0625 C 296.304688 340.902344 296.144531 340.902344 296.144531 340.902344 C 274.320312 342.179688 259.027344 342.976562 250.265625 343.453125 C 237.519531 343.929688 226.371094 343.929688 216.652344 343.613281 C 206.296875 342.339844 195.464844 341.382812 184.792969 340.585938 C 184.632812 340.585938 184.632812 340.585938 184.792969 340.585938 Z M 151.65625 28.828125 C 151.65625 28.667969 151.496094 28.667969 151.496094 28.667969 L 149.585938 28.511719 C 149.425781 28.511719 149.265625 28.667969 149.265625 28.667969 C 149.265625 28.667969 149.265625 28.667969 149.265625 28.828125 L 149.90625 30.742188 C 149.90625 30.898438 150.0625 30.898438 150.0625 30.898438 L 151.65625 31.058594 C 151.816406 31.058594 151.976562 31.058594 151.976562 30.898438 Z M 223.980469 29.148438 C 223.820312 29.148438 223.820312 29.308594 223.980469 29.148438 L 223.503906 31.21875 C 223.503906 31.21875 223.503906 31.378906 223.660156 31.378906 L 225.890625 30.898438 C 225.890625 30.898438 226.050781 30.898438 226.050781 30.742188 L 226.53125 28.828125 C 226.53125 28.828125 226.53125 28.667969 226.371094 28.667969 Z M 153.410156 31.378906 C 161.691406 33.609375 169.816406 35.042969 178.101562 35.839844 C 192.4375 37.113281 206.617188 35.203125 220.476562 32.332031 C 221.113281 32.175781 221.589844 32.015625 222.070312 31.855469 C 222.226562 31.855469 222.386719 31.695312 222.386719 31.378906 L 222.546875 29.625 C 222.546875 29.464844 222.546875 29.308594 222.386719 29.464844 C 216.332031 30.898438 210.28125 32.015625 204.066406 32.8125 C 189.410156 34.882812 174.753906 34.085938 160.417969 30.742188 C 158.027344 30.105469 155.640625 29.625 153.410156 29.148438 C 153.089844 29.148438 152.929688 29.148438 152.929688 29.464844 L 152.929688 30.742188 C 152.929688 31.058594 153.089844 31.378906 153.410156 31.378906 Z M 167.585938 58.777344 C 177.941406 64.832031 192.757812 65.308594 203.75 60.691406 C 215.695312 55.75 223.023438 44.757812 225.574219 32.175781 L 223.34375 32.8125 C 223.34375 32.8125 223.183594 32.8125 223.183594 32.972656 C 219.203125 49.21875 209.007812 59.574219 192.121094 61.167969 C 178.578125 62.441406 165.515625 58.300781 158.027344 46.351562 C 155.320312 42.050781 153.886719 37.75 152.453125 32.8125 C 152.292969 32.332031 152.132812 32.175781 151.65625 32.175781 L 151.019531 32.015625 C 150.542969 32.015625 150.382812 32.175781 150.542969 32.492188 C 152.292969 43.167969 158.027344 53.363281 167.585938 58.777344 Z M 191.484375 60.371094 C 207.414062 59.097656 218.246094 48.902344 221.75 33.449219 C 221.75 33.289062 221.75 33.289062 221.589844 33.289062 C 221.589844 33.289062 221.589844 33.289062 221.429688 33.289062 C 211.234375 35.679688 200.882812 37.113281 190.367188 37.429688 C 177.625 37.910156 165.515625 35.996094 153.410156 32.8125 C 153.25 32.8125 153.25 32.8125 153.25 32.972656 C 153.25 32.972656 153.25 32.972656 153.25 33.128906 C 153.726562 34.882812 154.363281 36.636719 154.84375 38.386719 C 160.417969 54.796875 174.753906 61.804688 191.484375 60.371094 Z M 15.929688 120.746094 C 15.929688 120.746094 16.089844 120.585938 16.089844 120.746094 C 28.992188 130.941406 41.101562 142.09375 50.179688 155.953125 C 53.367188 160.730469 55.597656 165.511719 57.347656 170.769531 C 57.347656 170.925781 57.507812 170.925781 57.667969 170.925781 C 65.15625 163.441406 72.484375 155.953125 79.652344 148.304688 C 81.246094 146.554688 82.519531 145.757812 84.75 146.394531 C 84.910156 146.394531 84.910156 146.394531 84.910156 146.234375 C 84.910156 143.847656 84.910156 140.660156 85.066406 136.519531 C 85.226562 132.058594 85.386719 123.136719 85.546875 110.074219 C 85.707031 100.195312 85.226562 91.753906 84.269531 84.746094 C 83.792969 80.601562 83.15625 77.417969 82.519531 75.1875 C 80.449219 67.859375 76.304688 62.125 70.09375 57.980469 C 69.933594 57.980469 69.773438 57.980469 69.773438 57.980469 C 62.445312 64.355469 55.4375 71.042969 48.746094 78.214844 C 35.046875 93.027344 21.664062 108.164062 7.648438 122.660156 C 7.488281 122.816406 7.648438 122.816406 7.648438 122.976562 C 9.558594 123.933594 11.308594 125.046875 13.0625 126.164062 C 29.789062 137.632812 43.808594 154.519531 52.09375 173 C 52.09375 173.15625 52.25 173.15625 52.410156 173.15625 C 53.367188 173.15625 54.324219 173 55.277344 172.679688 C 55.597656 172.519531 55.597656 172.363281 55.597656 172.203125 C 55.277344 170.609375 54.960938 169.175781 54.324219 167.742188 C 53.367188 165.191406 52.25 162.644531 50.976562 160.253906 C 45.5625 150.378906 38.550781 142.730469 30.269531 134.605469 C 25.648438 129.988281 20.867188 125.367188 15.929688 120.746094 C 15.769531 120.90625 15.769531 120.90625 15.929688 120.746094 Z M 360.027344 124.25 C 342.023438 135.402344 327.527344 151.332031 320.039062 170.925781 C 320.039062 171.085938 320.039062 171.246094 320.199219 171.40625 L 321.15625 172.363281 C 321.316406 172.363281 321.316406 172.363281 321.472656 172.363281 C 323.226562 166.46875 325.933594 161.050781 329.757812 156.113281 C 329.917969 155.953125 330.078125 155.792969 330.234375 155.792969 C 330.394531 155.792969 330.554688 155.792969 330.394531 155.953125 C 327.210938 161.527344 324.660156 167.265625 322.75 173.476562 C 322.75 173.476562 322.75 173.636719 322.90625 173.636719 L 323.066406 173.636719 C 323.226562 173.636719 323.386719 173.636719 323.546875 173.476562 C 331.351562 158.183594 341.546875 144.164062 354.609375 132.855469 C 358.910156 129.191406 363.53125 126.003906 368.46875 123.296875 C 368.628906 123.136719 368.789062 122.976562 368.628906 122.816406 C 368.628906 122.816406 368.628906 122.816406 368.628906 122.660156 C 355.882812 109.117188 343.457031 95.578125 331.03125 82.035156 C 323.546875 73.753906 315.738281 66.105469 307.296875 58.777344 C 306.976562 58.617188 306.816406 58.300781 306.5 58.140625 C 306.339844 58.140625 306.179688 58.140625 306.179688 58.140625 C 301.402344 61.804688 297.738281 66.265625 296.144531 72 C 294.390625 78.054688 293.753906 84.902344 293.4375 91.117188 C 292.480469 110.234375 292.800781 129.667969 293.117188 148.785156 C 293.117188 148.945312 293.117188 148.945312 293.277344 148.785156 C 295.984375 146.394531 298.214844 148.464844 300.128906 150.535156 C 306.339844 157.066406 312.710938 163.441406 319.085938 169.8125 C 319.085938 169.8125 319.085938 169.8125 319.242188 169.8125 C 319.722656 168.378906 320.199219 167.105469 320.675781 165.671875 C 328.484375 147.667969 342.660156 132.695312 360.027344 123.773438 C 359.867188 124.09375 359.867188 124.09375 360.027344 124.25 Z M 82.519531 348.550781 C 98.925781 351.417969 115.496094 352.214844 132.0625 352.851562 C 167.109375 354.125 201.996094 354.125 237.042969 352.851562 C 259.027344 352.054688 277.507812 350.78125 295.667969 348.230469 C 296.304688 348.074219 296.78125 347.753906 296.941406 347.117188 L 297.101562 346.957031 C 297.417969 346.320312 297.101562 346.160156 296.464844 346.160156 C 274.957031 347.914062 253.292969 349.507812 231.785156 349.507812 C 223.980469 349.507812 217.769531 349.347656 213.148438 349.027344 C 201.199219 348.074219 189.09375 346.640625 176.984375 347.117188 C 165.515625 347.59375 154.046875 350.144531 142.894531 350.304688 C 135.726562 350.460938 127.601562 350.304688 118.363281 349.664062 C 105.140625 348.871094 92.078125 347.277344 79.171875 345.207031 C 79.015625 345.207031 79.015625 345.207031 78.855469 345.363281 C 77.898438 348.074219 80.925781 348.390625 82.519531 348.550781 Z M 82.519531 348.550781 " fill-opacity="1" fill-rule="nonzero"></path></g></svg>